<?xml version="1.0" encoding="utf-8"?>
<!--
  Vectored By: Chris McGhee
  For: Dan Wolf
-->
<svg version="1.1" id="Layer_1" xmlns="http://www.w3.org/2000/svg" xmlns:xlink="http://www.w3.org/1999/xlink" x="0px" y="0px" width="376px" height="378px" viewBox="0 0 376 342" enable-background="new 0 0 595.28 841.89" xml:space="preserve">
  <!-- Silhouette -->
  <path fill="black" stroke="none" d="M125.472167240525 340.592240738232C125.472167240525 340.592240738232 53.6633638507652 341.065040326323 53.6633638507652 341.065040326323C53.6633638507652 341.065040326323 53.7122302158273 312.318345323741 53.7122302158273 312.318345323741C53.7122302158273 312.318345323741 63.0884117655574 301.780155754672 64.9586330935252 262.165467625899C1.79615824443061 261.315367022277 -6.55684466511298 188.155342124691 3.55935251798562 175.23381294964C10.0201171055108 167.41288739632 16.8998161631661 170.777206403891 19.3651079136691 175.537769784173C21.8303996641721 180.298333164454 37.9670215537831 206.018463297772 63.2150094813485 206.613533720307C88.4629974089139 207.208604142843 102.040755323307 195.156134649624 112.071942446043 190.735611510791C122.10312956878 186.315088371958 154.099326172865 179.134490395611 171.951438848921 166.723021582734C189.803551524977 154.311552769857 197.787769784173 134.19964028777 197.787769784173 134.19964028777C197.787769784173 134.19964028777 181.75328228363 131.608973987812 173.16726618705 120.217625899281C164.581250090471 108.826277810749 166.525472981776 86.7401748621224 184.717625899281 60.6420863309353C202.909778816786 34.5439977997482 228.239107305705 21.4444979227885 244.901079136691 22.0395683453237C261.563050967677 22.6346387678589 264.962230215827 22.6474820143885 264.962230215827 22.6474820143885C264.962230215827 22.6474820143885 282.019284773389 7.10960004632111 291.710431654676 7.4496402877698C301.401578535964 7.78968052921849 302.956834532374 15.3525179856115 302.956834532374 15.3525179856115C302.956834532374 15.3525179856115 314.360414284267 20.9876452962378 313.595323741007 36.6294964028777C312.830233197748 54.3115889582097 292.387454221733 58.0960656022466 299.613309352518 74.9280575539568C306.32910412113 84.1091440730715 320.892734102456 77.4679624509648 323.017985611511 76.4478417266187C325.143237120565 75.4277210022726 328.669625667675 80.6249547645586 326.969424460432 97.1169064748202C325.269223253188 113.608858185082 308.526522444017 116.049686608862 299.005395683453 118.089928057554C286.461050358296 120.778002055802 281.854768901177 138.822597455235 285.935251798561 151.829136690647C291.715935903189 164.410625624249 296.939467741702 182.066420103354 297.789568345324 202.893884892086C298.639668948945 223.721349680819 282.287769784173 253.046762589928 282.287769784173 253.046762589928C282.287769784173 253.046762589928 281.456237193507 341.04764550913 281.456237193507 341.04764550913C281.456237193507 341.04764550913 207.157646653806 340.63575242079 207.157646653806 340.63575242079C207.157646653806 340.63575242079 207.15083408536 285.478902673193 207.15083408536 285.478902673193C207.15083408536 285.478902673193 172.9438314864 269.373329918988 149.315972324231 286.573021514979C125.688113162062 303.77271311097 125.472167240525 340.592240738232 125.472167240525 340.592240738232Z"/>
  
  <!-- Body -->
  <path fill="#ffc100" stroke="none" d="M69.3983528391851 339.052449068054C69.3983528391851 339.052449068054 68.8123103597746 314.731686172518 68.8123103597746 314.731686172518C68.8123103597746 314.731686172518 76.6752188837434 304.930492815271 78.7750325097529 289.531859557867C80.8748461357624 274.133226300464 83.4633723450368 242.648461205028 83.4633723450368 242.648461205028C83.4633723450368 242.648461205028 29.074285604519 261.155825908399 16.0554411232599 198.301404703181C31.1908757807012 218.209394584575 50.1600261097937 221.338853514878 66.8081829725388 221.869049593309C90.9851241490094 222.081128024682 100.822640046916 212.452794818838 120.970091027308 203.969657563936C141.1175420077 195.486520309034 149.272219689436 200.09502047477 179.281317728652 181.114000866927C217.561474591397 150.362628317907 214.150845253576 130.128305158214 214.150845253576 130.128305158214C214.150845253576 130.128305158214 227.261511818251 120.178682781305 227.57962946531 106.393584742089C227.897747112369 92.6084867028736 216.64559361534 81.3768791657105 214.736887732987 64.198526224534C211.131554399653 64.3045654402203 209.730430250644 78.2359672607664 210.048547897703 83.5379280450802C211.533096917311 101.564594711747 216.817407481068 117.634431066575 195.39748591244 117.528391850889C178.219132971264 114.135136948928 180.964845406563 94.9869918151916 193.053315994798 77.3844820112701C205.141786583034 59.7819722073485 217.227361431959 43.5276358907672 236.420459471175 38.1196358907672C255.61355751039 32.7116358907672 267.187689640225 41.6358907672302 267.187689640225 41.6358907672302C267.187689640225 41.6358907672302 286.644437849002 23.3625346898187 288.871261378414 23.468573905505C291.098084907825 23.5746131211912 291.57808817155 27.6518140697111 291.57808817155 27.6518140697111C291.57808817155 27.6518140697111 296.950374053393 27.5627356128407 298.540962288687 31.3801473775466C304.267079935745 43.892774828527 275.099952574007 54.2347009357709 286.234070221066 81.4867793671435C296.201756495576 94.3175244651827 312.312960554833 92.914607715648 312.312960554833 92.914607715648C312.312960554833 92.914607715648 310.451275963181 97.488772686708 305.573472041612 101.4122236671C300.695668120044 105.335674647492 288.421318646574 100.676292205309 278.029475509319 113.71911573472C270.285502322196 123.429812270955 268.691045927676 140.947764675468 272.119300733701 157.505068456659C274.605930922037 169.514645850791 281.89584923793 176.546480675819 280.959687906372 201.332466406589C281.489883984803 252.973564445804 238.471608149111 272.243606415258 238.471608149111 272.243606415258C238.471608149111 272.243606415258 239.057650628522 337.880364109233 239.057650628522 337.880364109233C239.057650628522 337.880364109233 222.648461205028 337.880364109233 222.648461205028 337.880364109233C222.648461205028 337.880364109233 222.648461205028 244.699609882965 222.648461205028 244.699609882965C222.648461205028 244.699609882965 206.825314260945 243.820546163849 206.825314260945 243.820546163849C206.825314260945 243.820546163849 207.411356740355 267.262245340269 207.411356740355 267.262245340269C207.411356740355 267.262245340269 168.161402993447 252.743697901527 138.258344169918 274.5877763329C119.017599005325 288.643072446042 84.7726363932885 321.686009713001 84.7726363932885 321.686009713001C84.7726363932885 321.686009713001 84.6817955464159 339.345470307759 84.6817955464159 339.345470307759C84.6817955464159 339.345470307759 69.3983528391851 339.052449068054 69.3983528391851 339.052449068054Z"/>
  
  <!-- Left front leg -->
  <path fill="#c38401" stroke="none" d="M254.630599755202 338.67270501836C254.630599755202 338.67270501836 254.599349755202 284.652639228886 254.630599755202 281.746389228886C259.536849755202 279.152639228886 262.383476132191 276.791814565483 265.508476132191 272.573064565483C265.508476132191 276.604314565483 265.717992656059 338.718872399021 265.717992656059 338.718872399021C265.717992656059 338.718872399021 254.630599755202 338.67270501836 254.630599755202 338.67270501836Z"/>
  
  <!-- Left rear leg -->
  <path fill="#c38401" stroke="none" d="M100.516576164114 339.67270501836C100.516576164114 339.67270501836 100.433209904766 325.052531295805 100.464459904766 322.146281295805C104.151959904766 316.615031295805 111.525280445659 304.45279386546 120.619030445659 297.54654386546C113.994030445659 307.95279386546 110.615896247378 322.363367324914 110.615896247378 322.363367324914C110.615896247378 322.363367324914 110.717992656059 339.718872399021 110.717992656059 339.718872399021C110.717992656059 339.718872399021 100.516576164114 339.67270501836 100.516576164114 339.67270501836Z"/>
  
  <!-- Eye -->
  <path fill="black" stroke="none" d="M254.524244879065 44.0951075774133C258.022676397331 44.0951075774133 260.858717211384 46.9311483914666 260.858717211384 50.4295799097327C260.858717211384 53.9280114279987 258.022676397331 56.764052242052 254.524244879065 56.764052242052C251.025813360799 56.764052242052 248.189772546746 53.9280114279987 248.189772546746 50.4295799097327C248.189772546746 46.9311483914666 251.025813360799 44.0951075774133 254.524244879065 44.0951075774133Z"/>
  
  <!-- Upper bork -->
  <path fill="black" stroke="none" d="M355.547544478971 -0.34876156826806C355.547544478971 -0.34876156826806 365.421908550523 8.49147682665432 365.421908550523 8.49147682665432C365.421908550523 8.49147682665432 342.141998590788 33.44021133831 338.643567072522 33.44021133831C335.145135554256 33.44021133831 331.553387514973 29.9677854924845 331.553387514973 26.4693539742184C331.553387514973 22.9709224559523 355.547544478971 -0.34876156826806 355.547544478971 -0.34876156826806Z"/>
  
  <!-- Lower bork -->
  <path fill="black" stroke="none" d="M368.399980346234 39.6119350662342C372.775127439667 39.7312572596915 375.370837710325 43.7190597873509 375.370837710325 46.6225664948115C374.694678614067 54.1000906181347 347.31972616878 58.8038263065378 346.524244879065 58.764052242052C343.978704751976 58.764052242052 340.547739127117 56.1285679069085 340.547739127117 52.3102577162754C340.70683538506 43.2417710135218 366.809017766803 39.6119350662342 368.399980346234 39.6119350662342Z"/>
  
  <!-- Ground shadow -->
  <path fill="black" stroke="none" d="M-0.43536365972759 348.964790542277C0.01598002246237 336.214331520411 54.1639768073672 338.718078413181 167.913132870727 338.36700077101C281.662288934087 338.015923128839 340.431251606271 335.814925420771 340.431251606271 348.791056283732C340.431251606271 361.767187146693 282.726349235841 358.874861529523 166.870727319455 358.172706245181C51.0151054030698 357.470550960839 -0.88670734191754 361.715249564143 -0.43536365972759 348.964790542277Z"/>
</svg>